<svg id="Слой_1" data-name="Слой 1" xmlns="http://www.w3.org/2000/svg" viewBox="0 0 1280 1280">
    <path d="M364.32,1007.61a14.87,14.87,0,0,0,15.23,14.86V1066c-34.39,0-62.38-28.66-62.38-62.63A71,71,0,0,1,302,1005.5a62.52,62.52,0,0,1-62.38-62.35V749.64a187.41,187.41,0,0,0-12.79-68h0A157.85,157.85,0,0,1,216,624.28v-.47A157.85,157.85,0,0,1,226.25,568l1.25-3.3a187.4,187.4,0,0,0,12.12-66.28V320.86c0-32.41,23.74-61.41,56.15-64.55,37.19-3.61,68.62,25.5,68.62,61.8l0,185.17a187.37,187.37,0,0,1-8.62,56.15l-3.52,11.22A157.82,157.82,0,0,0,345,617.93v11.49a157.82,157.82,0,0,0,7.25,47.29l3.52,11.22a187.37,187.37,0,0,1,8.61,56.15ZM317.22,314.1a15.23,15.23,0,0,0-30.46,0V499.17A187.4,187.4,0,0,1,275,564.59l-1.84,4.94a157.84,157.84,0,0,0-9.93,55.11h0a157.84,157.84,0,0,0,9.68,54.41l2.4,6.55a187.4,187.4,0,0,1,11.49,64.6V947.14a15.21,15.21,0,0,0,30.41.5l0-202.12a187.37,187.37,0,0,0-8.38-55.41l-3.95-12.76a157.82,157.82,0,0,1-7.06-46.67V620.31a157.82,157.82,0,0,1,6.51-44.85l5.15-17.38a187.37,187.37,0,0,0,7.73-53.25Z"/>
    <path d="M484,627.64c4.68,5.88,15.93,35.28,24.07,56.7a184.66,184.66,0,0,1,12,65.6v254.88H472.9V752.75c0-28.81-3.3-57.39-16.5-83-4.66-9-9.09-15.82-11.88-15.83l-23.36.56,10.76,30.55a185.6,185.6,0,0,1,10.53,61.64v258.13H395.29V745.34a185.61,185.61,0,0,0-9.12-57.47l-3.57-11a175.08,175.08,0,0,1-8.6-54.21h0a175.07,175.07,0,0,1,9.82-57.81l1.06-3a185.6,185.6,0,0,0,10.41-61.29V258h62.38a62.47,62.47,0,0,1,62.38,62.55V503.05A184.63,184.63,0,0,1,512,557.23C503.49,584.94,489.47,620.76,484,627.64ZM472.9,316.54a15.24,15.24,0,0,0-15.21-15.26H442.44V498.69a185.61,185.61,0,0,1-9.85,59.68l-12.3,36.22s32.25,1.81,32.29-1.59l11.29-34.84a185.61,185.61,0,0,0,9-57.21Z"/>
    <path d="M598.86,961.56H629.3v-278h47.16v321.23H551.69V753.91a227,227,0,0,0-14.41-79.61h0a124.33,124.33,0,0,1-7.89-43.6h0a124.34,124.34,0,0,1,5.28-35.86L542,570.33a227.07,227.07,0,0,0,9.64-65.48V258H676.46V579.25H629.3v-278H598.86V504a227.06,227.06,0,0,1-10.52,68.31l-11.79,37.37,77.61,0L642,652.9H576.56l8.55,23.45a227,227,0,0,1,13.75,77.83Z"/>
    <path d="M833.08,321.17V506.94a262.91,262.91,0,0,1-13.25,82.41h0a135.35,135.35,0,0,0-6.78,45.85h0A135.35,135.35,0,0,0,819,671.58l2.46,8a262.91,262.91,0,0,1,11.63,77.32v247.93H785.93V720.44L766.37,654l-30.44,0,9.39,32.79a262.91,262.91,0,0,1,10.16,72.39v245.62H708.33V759.09a262.91,262.91,0,0,0-9.61-70.41l-5-18a135.35,135.35,0,0,1-4.94-36.25v-2.93a135.35,135.35,0,0,1,5.93-39.63l2.1-6.85a262.91,262.91,0,0,0,11.52-77V318.39a62.45,62.45,0,0,1,68.61-62.09C809.34,259.47,833.08,288.61,833.08,321.17Zm-47.14-6.8a15.23,15.23,0,0,0-30.46,0V507.81a262.91,262.91,0,0,1-11.64,77.35l-7.92,25.73h30.44l7.6-24.33a262.91,262.91,0,0,0,12-78.38Z"/>
    <path d="M1001.56,256A62.39,62.39,0,0,1,1064,318.39v199a196.75,196.75,0,0,1-7.85,55l-2.88,9.9a136.3,136.3,0,0,0-5.44,38.12v6.06a136.3,136.3,0,0,0,6.19,40.6l1.06,3.38a196.75,196.75,0,0,1,8.93,58.61v275.59H1016.8V729.27a196.75,196.75,0,0,0-9.56-60.57h0a136.3,136.3,0,0,1-6.62-42v-5a136.3,136.3,0,0,1,5.61-38.72l2.46-8.29a196.75,196.75,0,0,0,8.1-55.89V314.37a15.23,15.23,0,1,0-30.45,0v204a196.75,196.75,0,0,1-7.85,55l-2.89,9.91a136.3,136.3,0,0,0-5.44,38.12v3.29a136.3,136.3,0,0,0,6.19,40.6l1.06,3.4a196.75,196.75,0,0,1,8.93,58.6v277.44H939.19V727.29a196.75,196.75,0,0,0-8.93-58.62l-1.05-3.37A136.3,136.3,0,0,1,923,624.7v-3.59a136.3,136.3,0,0,1,5.27-37.55l3.29-11.49a196.75,196.75,0,0,0,7.61-54.2V314.37a15.23,15.23,0,1,0-30.46,0V519.9a196.75,196.75,0,0,1-6.55,50.36l-5.08,19.19a136.3,136.3,0,0,0-4.54,34.89h0a136.3,136.3,0,0,0,6.4,41.28l.53,1.68a196.75,196.75,0,0,1,9.24,59.59v277.84H861.58V725.44a196.75,196.75,0,0,0-8.93-58.61l-1.05-3.38a136.3,136.3,0,0,1-6.19-40.61v-.1a136.3,136.3,0,0,1,4.67-35.38l4.76-17.7a196.75,196.75,0,0,0,6.75-51.08V321.42c0-34.5,26.7-64.77,61.2-65.41a62.08,62.08,0,0,1,40,13.61A62,62,0,0,1,1001.55,256Z"/>
</svg>